#N canvas 415 508 227 294 10;
#X obj 0 184 hip~ 40;
#X obj 0 23 t b b;
#X obj 0 207 outlet~;
#X obj 0 0 inlet trigger;
#X obj 0 161 *~ 0.1;
#X obj 0 138 *~;
#X obj 0 92 phasor~;
#X obj 0 115 cos~;
#X obj 56 91 adenv~ 10 80;
#X obj 0 46 expcurve~ 100;
#X obj 56 70 del 3;
#X obj 115 -1 inlet;
#X obj 0 69 *~;
#X connect 0 0 2 0;
#X connect 1 0 9 0;
#X connect 1 1 10 0;
#X connect 3 0 1 0;
#X connect 4 0 0 0;
#X connect 5 0 4 0;
#X connect 6 0 7 0;
#X connect 7 0 5 0;
#X connect 8 0 5 1;
#X connect 9 0 12 0;
#X connect 10 0 8 0;
#X connect 11 0 12 1;
#X connect 12 0 6 0;
