#N canvas 1093 522 450 305 10;
#X obj 29 31 inlet kill;
#X obj 29 53 0.0002;
#X obj 29 75 *;
#X obj 29 97 popsound;
#X obj 120 100 bubblesound;
#X obj 120 122 *~ 1;
#X obj 89 159 outlet~;
#X obj 30 124 *~ 0.5;
#X obj 229 58 inlet freq;
#X obj 120 30 inlet trigger;
#X obj 236 128 inlet volume;
#X text 230 42 250 - 2500;
#X text 232 108 0 - 1;
#X connect 0 0 1 0;
#X connect 1 0 2 0;
#X connect 2 0 3 0;
#X connect 3 0 7 0;
#X connect 4 0 5 0;
#X connect 5 0 6 0;
#X connect 7 0 6 0;
#X connect 8 0 4 1;
#X connect 8 0 2 1;
#X connect 9 0 4 0;
#X connect 10 0 5 1;
