#N canvas 646 175 450 300 10;
#X obj 128 30 inlet;
#X msg 128 59 1 0 0 \, 0 \$1 0;
#X obj 128 91 vline~;
#X obj 129 121 *~;
#X obj 128 151 *~;
#X obj 128 182 *~;
#X obj 63 154 sig~ 1;
#X obj 63 186 -~;
#X obj 63 208 outlet~;
#X obj 128 204 outlet~;
#X connect 0 0 1 0;
#X connect 1 0 2 0;
#X connect 2 0 3 0;
#X connect 2 0 3 1;
#X connect 3 0 4 0;
#X connect 3 0 4 1;
#X connect 4 0 5 0;
#X connect 4 0 5 1;
#X connect 4 0 7 1;
#X connect 5 0 9 0;
#X connect 6 0 7 0;
#X connect 7 0 8 0;
