#N canvas 674 643 450 300 10;
#X obj 183 16 r trigger;
#X obj 182 43 bng 15 250 50 0 empty empty empty 17 7 0 10 -262144 -1
-1;
#X obj 183 116 bubblesound;
#X obj 226 193 dac~;
#X obj 279 114 r volume;
#X obj 227 158 *~ 1;
#X obj 257 16 r freq;
#X floatatom 257 50 5 0 0 0 - - -;
#X text 268 33 250 - 2500;
#X text 284 132 0 - 1;
#X obj 76 124 popsound;
#X obj 75 8 r kill;
#X obj 75 33 bng 15 250 50 0 empty empty empty 17 7 0 10 -262144 -1
-1;
#X floatatom 76 103 5 0 0 0 - - -;
#X obj 76 79 *;
#X obj 75 56 0.0002;
#X obj 166 160 *~ 0.5;
#X connect 0 0 1 0;
#X connect 1 0 2 0;
#X connect 2 0 5 0;
#X connect 4 0 5 1;
#X connect 5 0 3 0;
#X connect 5 0 3 1;
#X connect 6 0 7 0;
#X connect 7 0 2 1;
#X connect 7 0 14 1;
#X connect 10 0 16 0;
#X connect 11 0 12 0;
#X connect 12 0 15 0;
#X connect 13 0 10 0;
#X connect 14 0 13 0;
#X connect 15 0 14 0;
#X connect 16 0 3 0;
#X connect 16 0 3 1;
