#N canvas 602 505 815 294 10;
#X obj 87 8 r trigger;
#X obj 52 45 bng 15 250 50 0 empty empty empty 17 7 0 10 -262144 -1
-1;
#X obj 229 204 dac~;
#X obj 125 42 r volume;
#X obj 162 8 r freq;
#X floatatom 76 44 5 0 0 0 - - -;
#X obj 31 9 r kill;
#X obj 31 45 bng 15 250 50 0 empty empty empty 17 7 0 10 -262144 -1
-1;
#X text 284 132;
#X obj 32 81 bubble;
#X obj 240 43 bng 15 250 50 0 empty empty empty 17 7 0 10 -262144 -1
-1;
#X floatatom 264 42 5 0 0 0 - - -;
#X obj 219 43 bng 15 250 50 0 empty empty empty 17 7 0 10 -262144 -1
-1;
#X obj 220 79 bubble;
#X obj 219 7 r kill1;
#X obj 275 6 r trigger1;
#X obj 360 7 r freq1;
#X obj 313 40 r volume1;
#X obj 449 39 bng 15 250 50 0 empty empty empty 17 7 0 10 -262144 -1
-1;
#X floatatom 473 38 5 0 0 0 - - -;
#X obj 428 39 bng 15 250 50 0 empty empty empty 17 7 0 10 -262144 -1
-1;
#X obj 429 75 bubble;
#X text 475 29;
#X text 266 41;
#X obj 428 3 r kill2;
#X obj 484 2 r trigger2;
#X obj 569 3 r freq2;
#X obj 522 36 r volume2;
#X obj 455 153 bng 15 250 50 0 empty empty empty 17 7 0 10 -262144
-1 -1;
#X floatatom 479 152 5 0 0 0 - - -;
#X obj 434 153 bng 15 250 50 0 empty empty empty 17 7 0 10 -262144
-1 -1;
#X obj 435 189 bubble;
#X text 481 143;
#X obj 434 117 r kill3;
#X obj 490 116 r trigger3;
#X obj 575 117 r freq3;
#X obj 528 150 r volume3;
#X connect 0 0 1 0;
#X connect 1 0 9 1;
#X connect 3 0 9 3;
#X connect 4 0 5 0;
#X connect 5 0 9 2;
#X connect 6 0 7 0;
#X connect 7 0 9 0;
#X connect 9 0 2 0;
#X connect 9 0 2 1;
#X connect 10 0 13 1;
#X connect 11 0 13 2;
#X connect 12 0 13 0;
#X connect 13 0 2 0;
#X connect 13 0 2 1;
#X connect 14 0 12 0;
#X connect 15 0 10 0;
#X connect 16 0 11 0;
#X connect 17 0 13 3;
#X connect 18 0 21 1;
#X connect 19 0 21 2;
#X connect 20 0 21 0;
#X connect 21 0 2 0;
#X connect 21 0 2 1;
#X connect 24 0 20 0;
#X connect 25 0 18 0;
#X connect 26 0 19 0;
#X connect 27 0 21 3;
#X connect 28 0 31 1;
#X connect 29 0 31 2;
#X connect 30 0 31 0;
#X connect 31 0 2 0;
#X connect 31 0 2 1;
#X connect 33 0 30 0;
#X connect 34 0 28 0;
#X connect 35 0 29 0;
#X connect 36 0 31 3;
