#N canvas 206 524 450 369 10;
#X obj 85 32 inlet;
#X obj 85 54 t f f f;
#X obj 46 156 * 90;
#X obj 102 88 swap 1;
#X obj 102 110 -;
#X obj 102 132 * 300;
#X obj 102 154 + 100;
#X obj 46 178 env4pow;
#X obj 20 211 *~ 2000;
#X obj 20 247 +~;
#X obj 20 269 osc~;
#X obj 20 291 *~;
#X obj 20 313 outlet~;
#X obj 190 134 + 0.1;
#X obj 109 254 *~;
#X obj 108 206 lop~ 20;
#X connect 0 0 1 0;
#X connect 1 0 2 0;
#X connect 1 1 3 0;
#X connect 1 2 13 0;
#X connect 2 0 7 0;
#X connect 3 0 4 0;
#X connect 3 1 4 1;
#X connect 4 0 5 0;
#X connect 5 0 6 0;
#X connect 6 0 9 1;
#X connect 7 0 8 0;
#X connect 7 1 15 0;
#X connect 8 0 9 0;
#X connect 9 0 10 0;
#X connect 10 0 11 0;
#X connect 11 0 12 0;
#X connect 13 0 14 1;
#X connect 14 0 11 1;
#X connect 15 0 14 0;
